<?xml version="1.0" encoding="UTF-8"?>
<svg id="_图层_1" data-name="图层 1" xmlns="http://www.w3.org/2000/svg" viewBox="0 0 1022.57 574.72">
  <defs>
    <style>
      .cls-1 {
        fill: #fff;
      }
    </style>
  </defs>
  <path class="cls-1" d="m0,574.48C0,382.99,0,191.49,0,0c340.86,0,681.71,0,1022.57,0,0,191.49,0,382.99,0,574.48-340.86,0-681.71,0-1022.57,0Zm159.25-280.23c-.63-3.11-.63-186.97-.05-189.82,2.75-.45,328.85-.29,330.49.21v42.28c0,14.2-.03,28.39,0,42.59.03,14.08-.15,28.15.06,42.31,5.02.13,9.7.31,14.64-.04v-24.27h46.99v26.26c4.92.1,9.58.13,14.42-.04.02-13.39.06-26.5-.14-39.82h-61.35c-.02-34.78,0-69.34,0-103.93H144.27v140.4c0,6.7.02,13.41,0,20.11-.02,6.66.11,13.33-.1,20.11h-30.84c-5.05,0-10.09-.02-15.14,0-5.09.03-10.18-.11-15.22.04-.48,4.4-.29,223.68.21,225.67.72,0,1.49,0,2.26,0,4.18-.04,8.36-.12,12.53-.13,15.45-.01,30.91,0,46.36,0,89.9,0,179.81,0,269.71,0,4.41,0,8.83-.12,13.24-.19.37,0,.74-.11,1.36-.21v-96.99c7.81,0,15.36,0,22.91,0h68.61c7.57,0,15.14.02,22.71,0,7.61-.02,15.22.09,22.8-.02v-42.86h-14.2c-.43,9.44.07,18.78-.4,28.11H224.45c-.63-4.24-.5-72.86.19-75.46h15.51v-14.3h-80.9Zm188.45,16.04c-.23.06-.45.11-.68.17-.51-.67-1.06-1.32-1.54-2.01-13.32-19.16-26.64-38.32-39.96-57.48-7.02-10.1-14.08-20.17-21.04-30.31-1.01-1.48-2.11-2.11-3.89-2.02-2.6.13-5.2.03-7.8.03q-3.21,0-3.22,3.27c0,21.05,0,42.11,0,63.16,0,14.59,0,29.18,0,43.77,0,.99.11,1.97.17,2.89,3.13.52,10.78.39,12.61-.24v-2.96c0-22.08,0-44.16,0-66.24,0-6.86,0-13.72,0-20.58,0-.81.11-1.62.17-2.44.19-.05.38-.11.57-.16.5.65,1.03,1.28,1.5,1.96,14.63,21.13,29.24,42.27,43.86,63.41,5.87,8.49,11.79,16.96,17.58,25.51,1.06,1.57,2.23,2.17,4.08,2.07,2.75-.14,5.52-.03,8.28-.05.68,0,1.36-.11,1.99-.16.54-3.38.36-111.24-.25-113.21-2.72,0-5.54-.01-8.35,0-4.09.02-3.95-.51-3.95,3.98,0,28.23,0,56.46,0,84.69,0,.98-.09,1.97-.15,2.95Zm274.7,21.61c0-1.24,0-2.25,0-3.26,0-15.61,0-31.22,0-46.84,0-3.33.24-6.65,1.35-9.79,2.17-6.19,6.01-10.89,12.52-12.84,3.22-.97,6.53-.78,9.85-.4,7.3.82,12.17,4.89,14.18,11.98,1,3.52,1.25,7.13,1.25,10.77,0,15.77,0,31.54,0,47.31,0,.99.11,1.98.18,3.14,4.21.1,8.17.26,12.26-.1.06-.91.14-1.61.14-2.3,0-16.87.08-33.75-.06-50.62-.03-3.6-.47-7.26-1.29-10.76-1.37-5.9-4.26-11.03-9.24-14.71-7.91-5.84-16.78-7.02-26.08-4.6-6.89,1.79-12.23,6.01-16.19,11.95-.46.69-.97,1.34-1.61,2.22-.6-1.04-1.03-1.78-1.46-2.53-3.27-5.75-8.03-9.61-14.43-11.43-3.83-1.09-7.74-1.55-11.69-1.25-1.95.15-3.91.53-5.79,1.07-5.49,1.57-9.79,4.94-13.4,9.28-.51.62-1.07,1.2-1.6,1.8-.17-.08-.33-.16-.5-.23-.07-3.17-.13-6.34-.2-9.43-2.57-.59-10.43-.53-12.16.03-.54,2.81-.38,79.77.23,81.61,3.9.07,7.86.29,12.02-.15v-3.06c0-9.07,0-18.14,0-27.2,0-6.31,0-12.62,0-18.92,0-4.06.47-8.04,2.28-11.74,2.69-5.5,6.46-9.91,12.59-11.7,2.99-.88,6.05-.87,9.14-.46,6.74.88,11.31,4.4,13.59,10.84,1.37,3.86,1.55,7.86,1.55,11.89,0,15.77,0,31.54,0,47.31,0,1,.08,1.99.13,3.12h12.41Zm82.95-58.38c.32-.92.51-1.43.68-1.95,2-5.97,6.17-9.86,12-11.84,6.68-2.26,13.49-2.3,20.23-.17,4.5,1.42,7.86,4.29,9.8,8.65,1.91,4.29,2.08,8.85,1.99,13.45-.02.93-.45,1.47-1.43,1.5-.55.02-1.1.05-1.65.06-6.78.13-13.56.14-20.33.41-7.45.3-14.72,1.54-21.49,4.9-9.2,4.56-14.4,11.75-14.64,22.19-.18,7.54,2.68,13.66,8.77,18.17,3.89,2.88,8.33,4.4,13.12,4.92,14.43,1.58,26.76-2.58,36.62-13.44.4-.44.85-.82,1.64-1.58.51,4.63-.07,8.85.38,12.92,3.21.61,9.87.45,11.49-.25.03-.59.1-1.21.1-1.83,0-16.63.07-33.27-.05-49.9-.03-3.52-.42-7.1-1.16-10.54-1.72-7.98-6.13-14.08-13.58-17.74-4.01-1.97-8.29-2.95-12.72-3.39-8.1-.8-16.07-.25-23.75,2.62-9.59,3.58-15.47,10.52-17.97,20.38-.11.42-.01.88-.01,1.46,4.04.33,7.94.65,11.96.97Zm-251.66,20.99c.12-.87.23-1.25.22-1.63-.2-8.75-1.63-17.27-5.41-25.23-3.3-6.95-8.18-12.49-15.18-15.98-4.36-2.17-9.03-3.23-13.84-3.72-4.74-.48-9.45-.22-14.1.81-9.54,2.13-16.51,7.85-21.84,15.79-4.09,6.09-6.2,12.85-6.97,20.11-.98,9.25-.16,18.3,3.44,26.9,3.95,9.43,10.58,16.34,20.27,20.01,6.92,2.62,14.09,3.16,21.4,2.12,14-2,23.73-9.49,29.06-22.6.66-1.63,1.44-3.3,1.39-5.43-3.53,0-6.99.05-10.44-.03-1.32-.03-2.02.48-2.48,1.67-.47,1.25-1.04,2.47-1.65,3.66-3.2,6.26-8.13,10.44-15.06,11.86-2.98.61-6.11.88-9.15.74-9.7-.44-16.74-5.12-20.65-14.06-1.22-2.78-1.9-5.83-2.62-8.8-.46-1.88-.55-3.85-.84-6.09,5.69-.22,11.02-.08,16.36-.11,5.28-.02,10.56,0,15.84,0,5.36,0,10.72,0,16.08,0h16.17Zm17.29-43.96c-.1.74-.25,1.34-.25,1.95.02,17.35.04,34.69.09,52.04.01,3.72.63,7.38,1.65,10.96,1.96,6.88,5.69,12.43,12.19,15.82,4.06,2.12,8.46,2.93,12.97,3.27,3.73.28,7.4-.01,11.02-.96,6.75-1.77,12.04-5.7,16.36-11.06.51-.64,1.05-1.25,1.58-1.88.17.07.35.14.52.21.41,3.77-.11,7.6.29,11.3,2.53.49,10.37.43,12.27-.07v-81.57h-12.41v3.16c0,14.59-.02,29.17.02,43.76,0,2.96-.44,5.81-1.32,8.6-1.97,6.22-5.52,11.27-11.09,14.82-5.51,3.52-11.47,3.6-17.57,2.29-7.25-1.56-11.57-6.23-13-13.38-.7-3.53-.96-7.19-.98-10.8-.1-15.14-.04-30.28-.05-45.42,0-.99-.13-1.98-.21-3.05h-12.09Zm311.7-.49c-.15.52-.27.74-.27.97-.02,26.34-.04,52.68-.04,79.02,0,.47.09.94.16,1.4,0,.07.08.13.13.19.05.06.12.11.19.18,3,.48,10.27.33,12.07-.34v-2.73c0-14.59-.05-29.18.05-43.77.02-2.97.32-6.01,1.02-8.89,1.82-7.46,6.1-13.09,13.3-16.17,3.96-1.7,8.12-1.64,12.33-1.16,8.06.92,14,6.12,15.95,14.01.94,3.79,1.17,7.63,1.17,11.5.02,14.83,0,29.65.01,44.48,0,1,.09,1.99.15,3.17,4.2.16,8.17.29,12.23-.07.05-.94.13-1.64.13-2.34,0-15.85.02-31.7-.01-47.56-.01-5.06-.39-10.08-1.85-14.97-1.97-6.6-5.54-11.98-11.68-15.41-3.86-2.15-8.06-3.14-12.41-3.58-11.68-1.18-21.44,2.36-28.79,11.79-.31.4-.7.75-1.35,1.44-.63-3.91.11-7.52-.49-11.15h-12.01Zm157.1,81.82c.07-.97.16-1.66.16-2.36,0-15.93.02-31.86-.02-47.79-.01-4.98-.42-9.92-1.85-14.73-2.3-7.75-6.79-13.6-14.43-16.75-3.39-1.4-6.95-2.07-10.58-2.35-11.42-.88-20.92,2.77-27.99,12.05-.27.36-.61.66-1.25,1.34-.56-3.93.08-7.54-.48-11.23-4.13-.22-8.09-.19-11.98-.05-.61,3.17-.44,80.1.18,81.96,3.89.05,7.85.32,12.04-.18,0-1.25,0-2.26,0-3.27,0-14.59-.05-29.18.04-43.77.02-2.81.3-5.69.96-8.43,1.81-7.55,6.07-13.28,13.36-16.39,4.6-1.97,9.42-1.82,14.19-.84,6.8,1.4,11.37,5.45,13.6,12.11,1.37,4.11,1.65,8.34,1.66,12.6.02,14.98,0,29.97.02,44.95,0,1,.1,1.99.15,3.14h12.21Z"/>
  <path d="m159.25,294.25h80.9v14.3h-15.51c-.69,2.6-.82,71.22-.19,75.46h326.62c.47-9.33-.03-18.67.4-28.11h14.2v42.86c-7.58.1-15.19,0-22.8.02-7.57.02-15.14,0-22.71,0h-68.61c-7.55,0-15.1,0-22.91,0v96.99c-.62.1-.99.2-1.36.21-4.41.08-8.83.19-13.24.19-89.9.01-179.81,0-269.71,0-15.45,0-30.91-.02-46.36,0-4.18,0-8.36.08-12.53.13-.77,0-1.55,0-2.26,0-.5-1.99-.69-221.27-.21-225.67,5.04-.15,10.13-.01,15.22-.04,5.05-.03,10.09,0,15.14,0h30.84c.21-6.78.08-13.45.1-20.11.02-6.7,0-13.41,0-20.11V89.98h360.04c0,34.59,0,69.15,0,103.93h61.35c.21,13.32.17,26.43.14,39.82-4.83.17-9.5.15-14.42.04v-26.26h-46.99v24.27c-4.94.35-9.62.17-14.64.04-.21-14.16-.03-28.24-.06-42.31-.03-14.2,0-28.39,0-42.59v-42.28c-1.64-.5-327.74-.66-330.49-.21-.58,2.85-.58,186.71.05,189.82Zm254.74,186.34c-.02-27.39.04-54.48-.04-81.81h-203.46v-89.84c-22.18-.37-44.12-.06-66.29-.03v-23.64c-15.71-.2-31.18-.24-46.62.02-.58,6.06-.43,192.52.15,195.3h316.26Z"/>
  <path d="m347.7,310.3c.05-.98.15-1.97.15-2.95,0-28.23,0-56.46,0-84.69,0-4.48-.14-3.95,3.95-3.98,2.82-.02,5.64,0,8.35,0,.61,1.98.8,109.83.25,113.21-.63.05-1.31.16-1.99.16-2.76.02-5.53-.1-8.28.05-1.86.1-3.02-.51-4.08-2.07-5.8-8.55-11.71-17.01-17.58-25.51-14.62-21.14-29.24-42.27-43.86-63.41-.47-.67-1-1.31-1.5-1.96-.19.05-.38.11-.57.16-.06.81-.17,1.62-.17,2.44-.01,6.86,0,13.72,0,20.58,0,22.08,0,44.16,0,66.24v2.96c-1.84.63-9.48.76-12.61.24-.06-.92-.17-1.9-.17-2.89-.01-14.59,0-29.18,0-43.77,0-21.05,0-42.11,0-63.16q0-3.26,3.22-3.27c2.6,0,5.21.09,7.8-.03,1.78-.09,2.88.55,3.89,2.02,6.96,10.14,14.02,20.21,21.04,30.31,13.32,19.16,26.64,38.32,39.96,57.48.48.69,1.02,1.34,1.54,2.01.23-.06.45-.11.68-.17Z"/>
  <path d="m622.4,331.9h-12.41c-.05-1.13-.13-2.13-.13-3.12,0-15.77,0-31.54,0-47.31,0-4.03-.19-8.03-1.55-11.89-2.28-6.45-6.85-9.96-13.59-10.84-3.09-.41-6.15-.41-9.14.46-6.13,1.8-9.9,6.2-12.59,11.7-1.81,3.7-2.27,7.68-2.28,11.74-.01,6.31,0,12.62,0,18.92,0,9.07,0,18.14,0,27.2v3.06c-4.17.44-8.13.22-12.02.15-.61-1.84-.77-78.8-.23-81.61,1.73-.56,9.58-.62,12.16-.03.06,3.09.13,6.26.2,9.43.17.08.33.16.5.23.53-.6,1.09-1.19,1.6-1.8,3.61-4.33,7.91-7.7,13.4-9.28,1.88-.54,3.84-.92,5.79-1.07,3.96-.31,7.86.16,11.69,1.25,6.4,1.82,11.16,5.68,14.43,11.43.42.74.86,1.48,1.46,2.53.64-.88,1.15-1.53,1.61-2.22,3.96-5.94,9.3-10.17,16.19-11.95,9.3-2.41,18.17-1.24,26.08,4.6,4.98,3.68,7.88,8.81,9.24,14.71.81,3.5,1.26,7.17,1.29,10.76.13,16.87.06,33.75.06,50.62,0,.69-.08,1.39-.14,2.3-4.08.36-8.05.2-12.26.1-.07-1.16-.17-2.15-.18-3.14-.01-15.77,0-31.54,0-47.31,0-3.64-.25-7.24-1.25-10.77-2.01-7.1-6.89-11.16-14.18-11.98-3.32-.37-6.63-.57-9.85.4-6.51,1.96-10.35,6.65-12.52,12.84-1.1,3.15-1.35,6.46-1.35,9.79.01,15.61,0,31.22,0,46.84,0,1.01,0,2.02,0,3.26Z"/>
  <path d="m705.36,273.53c-4.02-.33-7.92-.64-11.96-.97,0-.58-.09-1.05.01-1.46,2.5-9.87,8.37-16.8,17.97-20.38,7.68-2.87,15.65-3.42,23.75-2.62,4.43.43,8.71,1.42,12.72,3.39,7.45,3.66,11.86,9.76,13.58,17.74.74,3.44,1.14,7.02,1.16,10.54.12,16.63.06,33.26.05,49.9,0,.62-.07,1.25-.1,1.83-1.62.69-8.28.85-11.49.25-.45-4.07.13-8.3-.38-12.92-.79.76-1.24,1.14-1.64,1.58-9.87,10.87-22.2,15.02-36.62,13.44-4.79-.52-9.23-2.03-13.12-4.92-6.09-4.51-8.95-10.63-8.77-18.17.24-10.44,5.44-17.63,14.64-22.19,6.78-3.36,14.05-4.6,21.49-4.9,6.77-.27,13.55-.28,20.33-.41.55-.01,1.1-.04,1.65-.06.98-.03,1.41-.57,1.43-1.5.09-4.59-.08-9.16-1.99-13.45-1.94-4.36-5.3-7.23-9.8-8.65-6.74-2.12-13.55-2.08-20.23.17-5.84,1.97-10,5.86-12,11.84-.17.52-.36,1.03-.68,1.95Zm32.69,19.05v.42c-3.07,0-6.15-.09-9.22.02-4.74.17-9.42.78-13.91,2.43-7.86,2.88-11.76,8.58-11.43,16.56.13,3,1.28,5.49,3.37,7.58,1.77,1.77,3.89,2.97,6.28,3.63,8.37,2.31,16.26.94,23.64-3.45,4.61-2.74,8.44-6.32,11.04-11.1,2.53-4.66,2.36-9.72,2.23-14.77-.03-1.18-.88-1.32-1.83-1.32-3.39.01-6.78,0-10.17,0Z"/>
  <path d="m453.7,294.52h-16.17c-5.36,0-10.72,0-16.08,0-5.28,0-10.56-.02-15.84,0-5.33.02-10.67-.11-16.36.11.3,2.24.38,4.21.84,6.09.73,2.97,1.4,6.02,2.62,8.8,3.91,8.94,10.95,13.62,20.65,14.06,3.04.14,6.17-.13,9.15-.74,6.92-1.42,11.86-5.6,15.06-11.86.61-1.19,1.18-2.41,1.65-3.66.45-1.19,1.15-1.7,2.48-1.67,3.45.08,6.91.03,10.44.03.06,2.13-.72,3.79-1.39,5.43-5.33,13.11-15.06,20.61-29.06,22.6-7.31,1.04-14.48.5-21.4-2.12-9.69-3.67-16.32-10.58-20.27-20.01-3.61-8.61-4.42-17.65-3.44-26.9.77-7.26,2.88-14.02,6.97-20.11,5.34-7.95,12.3-13.67,21.84-15.79,4.65-1.04,9.36-1.29,14.1-.81,4.82.48,9.48,1.54,13.84,3.72,6.99,3.49,11.87,9.03,15.18,15.98,3.79,7.96,5.21,16.47,5.41,25.23,0,.38-.1.77-.22,1.63Zm-12.98-9.72c.15-3.81-.68-7-1.71-10.13-2.31-7.04-6.57-12.36-13.8-14.78-2.22-.74-4.58-1.21-6.92-1.43-11.59-1.09-20.71,3.43-25.68,14.34-1.38,3.03-2.22,6.23-2.69,9.52-.32,2.28-.19,2.43,2.12,2.49.24,0,.47,0,.71,0,15.05,0,30.1,0,45.16,0,.85,0,1.69,0,2.81,0Z"/>
  <path d="m470.99,250.56h12.09c.08,1.08.21,2.07.21,3.05.01,15.14-.05,30.28.05,45.42.02,3.61.28,7.27.98,10.8,1.43,7.15,5.75,11.82,13,13.38,6.09,1.31,12.06,1.23,17.57-2.29,5.57-3.55,9.12-8.6,11.09-14.82.88-2.79,1.33-5.65,1.32-8.6-.04-14.59-.02-29.17-.02-43.76v-3.16h12.41v81.57c-1.9.5-9.73.56-12.27.07-.41-3.7.11-7.53-.29-11.3-.17-.07-.35-.14-.52-.21-.53.62-1.06,1.24-1.58,1.88-4.32,5.36-9.61,9.29-16.36,11.06-3.62.95-7.29,1.25-11.02.96-4.51-.34-8.91-1.15-12.97-3.27-6.5-3.39-10.23-8.94-12.19-15.82-1.02-3.58-1.64-7.23-1.65-10.96-.05-17.35-.07-34.69-.09-52.04,0-.6.15-1.21.25-1.95Z"/>
  <path d="m782.7,250.08h12.01c.6,3.63-.14,7.24.49,11.15.65-.69,1.04-1.03,1.35-1.44,7.34-9.44,17.1-12.97,28.79-11.79,4.35.44,8.55,1.42,12.41,3.58,6.14,3.43,9.71,8.81,11.68,15.41,1.46,4.89,1.84,9.91,1.85,14.97.04,15.85.02,31.7.01,47.56,0,.7-.08,1.4-.13,2.34-4.07.37-8.03.23-12.23.07-.06-1.18-.15-2.17-.15-3.17,0-14.83,0-29.65-.01-44.48,0-3.87-.23-7.71-1.17-11.5-1.96-7.89-7.9-13.1-15.95-14.01-4.21-.48-8.37-.53-12.33,1.16-7.2,3.08-11.48,8.71-13.3,16.17-.7,2.88-1,5.92-1.02,8.89-.1,14.59-.05,29.18-.05,43.77v2.73c-1.8.67-9.07.82-12.07.34-.08-.07-.14-.12-.19-.18-.05-.06-.12-.12-.13-.19-.06-.47-.16-.93-.16-1.4,0-26.34.02-52.68.04-79.02,0-.22.12-.45.27-.97Z"/>
  <path d="m939.8,331.89h-12.21c-.06-1.15-.15-2.15-.15-3.14,0-14.98,0-29.97-.02-44.95,0-4.26-.28-8.5-1.66-12.6-2.23-6.66-6.79-10.7-13.6-12.11-4.77-.98-9.59-1.13-14.19.84-7.29,3.12-11.55,8.84-13.36,16.39-.65,2.73-.94,5.61-.96,8.43-.09,14.59-.04,29.18-.04,43.77,0,1.01,0,2.02,0,3.27-4.19.51-8.15.24-12.04.18-.62-1.86-.79-78.78-.18-81.96,3.89-.14,7.85-.17,11.98.05.57,3.69-.08,7.3.48,11.23.63-.67.97-.98,1.25-1.34,7.06-9.28,16.56-12.94,27.99-12.05,3.62.28,7.19.95,10.58,2.35,7.64,3.15,12.13,9,14.43,16.75,1.43,4.81,1.84,9.76,1.85,14.73.04,15.93.02,31.86.02,47.79,0,.7-.09,1.39-.16,2.36Z"/>
  <path class="cls-1" d="m413.99,480.59H97.73c-.58-2.78-.73-189.24-.15-195.3,15.44-.26,30.91-.22,46.62-.02v23.64c22.17-.03,44.11-.34,66.29.03v89.84h203.46c.08,27.33.02,54.41.04,81.81Z"/>
  <path class="cls-1" d="m738.05,292.58c3.39,0,6.78,0,10.17,0,.95,0,1.8.14,1.83,1.32.13,5.05.3,10.11-2.23,14.77-2.6,4.78-6.43,8.36-11.04,11.1-7.38,4.39-15.27,5.75-23.64,3.45-2.39-.66-4.51-1.87-6.28-3.63-2.09-2.09-3.24-4.58-3.37-7.58-.34-7.98,3.56-13.68,11.43-16.56,4.49-1.65,9.17-2.26,13.91-2.43,3.07-.11,6.15-.02,9.22-.02v-.42Z"/>
  <path class="cls-1" d="m440.72,284.8c-1.11,0-1.96,0-2.81,0-15.05,0-30.1,0-45.16,0-.24,0-.47,0-.71,0-2.32-.06-2.45-.22-2.12-2.49.47-3.29,1.31-6.49,2.69-9.52,4.97-10.9,14.1-15.43,25.68-14.34,2.33.22,4.7.69,6.92,1.43,7.23,2.42,11.49,7.74,13.8,14.78,1.03,3.13,1.86,6.32,1.71,10.13Z"/>
</svg>